<svg width="63" height="58" viewBox="0 0 63 58" fill="none" xmlns="http://www.w3.org/2000/svg">
<path d="M1 18H7" stroke="white" stroke-width="1.2" stroke-miterlimit="10" stroke-linecap="round" stroke-linejoin="round"/>
<path d="M3.68005 28L8.88005 25" stroke="white" stroke-width="1.2" stroke-miterlimit="10" stroke-linecap="round" stroke-linejoin="round"/>
<path d="M3.68005 8L8.88005 11" stroke="white" stroke-width="1.2" stroke-miterlimit="10" stroke-linecap="round" stroke-linejoin="round"/>
<path d="M61.88 18H55.88" stroke="white" stroke-width="1.2" stroke-miterlimit="10" stroke-linecap="round" stroke-linejoin="round"/>
<path d="M59.2 28L54 25" stroke="white" stroke-width="1.2" stroke-miterlimit="10" stroke-linecap="round" stroke-linejoin="round"/>
<path d="M59.2 8L54 11" stroke="white" stroke-width="1.2" stroke-miterlimit="10" stroke-linecap="round" stroke-linejoin="round"/>
<path d="M2 57C2 45.95 10.95 37 22 37C33.05 37 42 45.95 42 57H2Z" fill="#1DA042" stroke="#087A43" stroke-width="1.2" stroke-miterlimit="10" stroke-linecap="round" stroke-linejoin="round"/>
<path d="M42 57C42 45.95 33.05 37 22 37C10.95 37 2 45.95 2 57" fill="#087A43"/>
<path d="M42 57C42 45.95 33.05 37 22 37C10.95 37 2 45.95 2 57" stroke="white" stroke-width="1.2" stroke-miterlimit="10" stroke-linecap="round" stroke-linejoin="round"/>
<path d="M37 57C37 48.72 30.28 42 22 42C13.72 42 7 48.72 7 57" fill="#087A43"/>
<path d="M37 57C37 48.72 30.28 42 22 42C13.72 42 7 48.72 7 57" stroke="white" stroke-width="1.2" stroke-miterlimit="10" stroke-linecap="round" stroke-linejoin="round"/>
<path d="M32 57C32 51.48 27.52 47 22 47C16.48 47 12 51.48 12 57" fill="#087A43"/>
<path d="M32 57C32 51.48 27.52 47 22 47C16.48 47 12 51.48 12 57" stroke="white" stroke-width="1.2" stroke-miterlimit="10" stroke-linecap="round" stroke-linejoin="round"/>
<path d="M27 57C27 54.24 24.76 52 22 52C19.24 52 17 54.24 17 57" fill="#087A43"/>
<path d="M27 57C27 54.24 24.76 52 22 52C19.24 52 17 54.24 17 57" stroke="white" stroke-width="1.2" stroke-miterlimit="10" stroke-linecap="round" stroke-linejoin="round"/>
<path d="M42 9.45996V54.66" stroke="white" stroke-width="1.2" stroke-miterlimit="10" stroke-linecap="round" stroke-linejoin="round"/>
<path d="M22 57C22 45.95 30.95 37 42 37C53.05 37 62 45.95 62 57H22Z" fill="#1DA042" stroke="#087A43" stroke-width="1.2" stroke-miterlimit="10" stroke-linecap="round" stroke-linejoin="round"/>
<path d="M62 57C62 45.95 53.05 37 42 37C30.95 37 22 45.95 22 57" fill="#087A43"/>
<path d="M62 57C62 45.95 53.05 37 42 37C30.95 37 22 45.95 22 57" stroke="white" stroke-width="1.2" stroke-miterlimit="10" stroke-linecap="round" stroke-linejoin="round"/>
<path d="M57 57C57 48.72 50.28 42 42 42C33.72 42 27 48.72 27 57" fill="#087A43"/>
<path d="M57 57C57 48.72 50.28 42 42 42C33.72 42 27 48.72 27 57" stroke="white" stroke-width="1.2" stroke-miterlimit="10" stroke-linecap="round" stroke-linejoin="round"/>
<path d="M52 57C52 51.48 47.52 47 42 47C36.48 47 32 51.48 32 57" fill="#087A43"/>
<path d="M52 57C52 51.48 47.52 47 42 47C36.48 47 32 51.48 32 57" stroke="white" stroke-width="1.2" stroke-miterlimit="10" stroke-linecap="round" stroke-linejoin="round"/>
<path d="M47 57C47 54.24 44.76 52 42 52C39.24 52 37 54.24 37 57" fill="#087A43"/>
<path d="M47 57C47 54.24 44.76 52 42 52C39.24 52 37 54.24 37 57" stroke="white" stroke-width="1.2" stroke-miterlimit="10" stroke-linecap="round" stroke-linejoin="round"/>
<path d="M22 29V37V29Z" fill="#1DA042"/>
<path d="M22 29V37" stroke="white" stroke-width="1.2" stroke-miterlimit="10" stroke-linecap="round" stroke-linejoin="round"/>
<path d="M22 1V7V1Z" fill="#1DA042"/>
<path d="M22 1V7" stroke="white" stroke-width="1.2" stroke-miterlimit="10" stroke-linecap="round" stroke-linejoin="round"/>
<path d="M28.01 13C28.01 9.69 25.32 7 22.01 7C18.7 7 16.01 9.69 16.01 13C16.01 15.31 17.68 17.28 19.96 17.66L24.07 18.34C26.35 18.72 28.02 20.69 28.02 23C28.02 26.31 25.33 29 22.02 29C18.71 29 16.02 26.31 16.02 23" stroke="white" stroke-width="1.2" stroke-miterlimit="10" stroke-linecap="round" stroke-linejoin="round"/>
<path d="M42 9.46C43.08 8.38 43.75 6.88 43.75 5.23C43.75 3.58 43.08 2.08 42 1C40.92 2.08 40.25 3.58 40.25 5.23C40.25 6.88 40.92 8.38 42 9.46Z" stroke="white" stroke-width="1.2" stroke-miterlimit="10" stroke-linecap="round" stroke-linejoin="round"/>
<path d="M36 23C36 26.31 38.69 29 42 29C42 25.69 39.31 23 36 23Z" fill="#087A43" stroke="white" stroke-width="1.2" stroke-miterlimit="10" stroke-linecap="round" stroke-linejoin="round"/>
<path d="M48 23C44.69 23 42 25.69 42 29C45.31 29 48 26.31 48 23Z" fill="#087A43" stroke="white" stroke-width="1.2" stroke-miterlimit="10" stroke-linecap="round" stroke-linejoin="round"/>
<path d="M36 13.0601C36 16.3701 38.69 19.0601 42 19.0601C42 15.7501 39.31 13.0601 36 13.0601Z" fill="#087A43" stroke="white" stroke-width="1.2" stroke-miterlimit="10" stroke-linecap="round" stroke-linejoin="round"/>
<path d="M48 13.0601C44.69 13.0601 42 15.7501 42 19.0601C45.31 19.0601 48 16.3801 48 13.0601Z" fill="#087A43" stroke="white" stroke-width="1.2" stroke-miterlimit="10" stroke-linecap="round" stroke-linejoin="round"/>
</svg>
