<svg width="240" height="132" viewBox="0 0 240 132" fill="none" xmlns="http://www.w3.org/2000/svg">
<path d="M166.65 2.54C156.74 2.27 147.41 4.62 139.28 8.95C127.22 15.37 112.78 15.37 100.73 8.95C92.6001 4.63 83.26 2.28 73.35 2.54C43.99 3.33 20.16 27.46 19.71 56.82C19.24 87.68 44.11 112.84 74.86 112.84C84.19 112.84 92.98 110.52 100.68 106.43C112.8 99.99 127.18 99.99 139.3 106.43C147 110.52 155.79 112.84 165.12 112.84C195.87 112.84 220.74 87.68 220.27 56.82C219.84 27.46 196.01 3.33 166.65 2.54Z" fill="#8CE269"/>
<path d="M150.14 68.6802V96.5202" stroke="#145536" stroke-width="1.2" stroke-miterlimit="10" stroke-linecap="round" stroke-linejoin="round"/>
<path d="M90.14 94.5402V68.6802" stroke="#145536" stroke-width="1.2" stroke-miterlimit="10" stroke-linecap="round" stroke-linejoin="round"/>
<path d="M118.94 106.18V68.5201L104.54 47.0801L90.14 68.5201V96.5201" fill="white"/>
<path d="M118.94 106.18V68.5201L104.54 47.0801L90.14 68.5201V96.5201" stroke="#145536" stroke-width="1.2" stroke-miterlimit="10" stroke-linecap="round" stroke-linejoin="round"/>
<path d="M106.94 100.33V78.3302C106.94 77.0002 105.87 75.9302 104.54 75.9302C103.21 75.9302 102.14 77.0002 102.14 78.3302V98.3702" stroke="#145536" stroke-width="1.2" stroke-miterlimit="10" stroke-linecap="round" stroke-linejoin="round"/>
<path d="M130.94 100.19V78.2801C130.94 76.9501 129.87 75.8801 128.54 75.8801C127.21 75.8801 126.14 76.9501 126.14 78.2801V102.39" stroke="#145536" stroke-width="1.2" stroke-miterlimit="10" stroke-linecap="round" stroke-linejoin="round"/>
<path d="M142.94 95.7401V78.2801C142.94 76.9501 141.87 75.8801 140.54 75.8801C139.21 75.8801 138.14 76.9501 138.14 78.2801V97.2401" stroke="#145536" stroke-width="1.2" stroke-miterlimit="10" stroke-linecap="round" stroke-linejoin="round"/>
<path d="M118.94 68.5201L104.54 47.0701H135.74L150.14 68.5201C150.14 68.5201 118.53 68.1201 118.94 68.5201Z" fill="#1DA042" stroke="#145536" stroke-width="1.2" stroke-miterlimit="10" stroke-linecap="round" stroke-linejoin="round"/>
<path d="M150.14 68.5201C150.14 68.5201 118.53 68.1101 118.94 68.5201" stroke="#145536" stroke-width="1.2" stroke-miterlimit="10" stroke-linecap="round" stroke-linejoin="round"/>
<path d="M146.54 63.16C146.54 63.16 115.03 62.85 115.34 63.16" stroke="#145536" stroke-width="1.2" stroke-miterlimit="10" stroke-linecap="round" stroke-linejoin="round"/>
<path d="M142.94 57.8001C142.94 57.8001 111.54 57.6001 111.74 57.8001" stroke="#145536" stroke-width="1.2" stroke-miterlimit="10" stroke-linecap="round" stroke-linejoin="round"/>
<path d="M139.34 52.44C139.34 52.44 108.04 52.34 108.14 52.44" stroke="#145536" stroke-width="1.2" stroke-miterlimit="10" stroke-linecap="round" stroke-linejoin="round"/>
<path d="M104.54 47.0801H135.74" stroke="#145536" stroke-width="1.2" stroke-miterlimit="10" stroke-linecap="round" stroke-linejoin="round"/>
<path d="M87.5001 29.6699V35.6699" stroke="#1DA042" stroke-width="1.2" stroke-miterlimit="10" stroke-linecap="round" stroke-linejoin="round"/>
<path d="M84.5001 32.6699H90.5001" stroke="#1DA042" stroke-width="1.2" stroke-miterlimit="10" stroke-linecap="round" stroke-linejoin="round"/>
<path d="M43.0001 62.6101V68.6101" stroke="#1DA042" stroke-width="1.2" stroke-miterlimit="10" stroke-linecap="round" stroke-linejoin="round"/>
<path d="M40.0001 65.6101H46.0001" stroke="#1DA042" stroke-width="1.2" stroke-miterlimit="10" stroke-linecap="round" stroke-linejoin="round"/>
<path d="M159.4 120.86V95.8302C146.9 92.0102 133.64 89.9402 119.89 89.9402C105.41 89.9402 91.46 92.2402 78.38 96.4602V120.87H159.4V120.86Z" fill="#1DA042" stroke="#145536" stroke-width="1.2" stroke-miterlimit="10" stroke-linecap="round" stroke-linejoin="round"/>
<path d="M59.01 88.9702C49.58 88.9702 40.45 90.2402 31.77 92.6002C54.11 115.63 85.38 129.95 120.01 129.95C126.9 129.95 133.65 129.37 140.23 128.29C121.25 104.34 91.93 88.9702 59.01 88.9702Z" fill="#1DA042"/>
<path d="M138.65 126.36C119.65 103.52 91.04 88.9802 59.01 88.9802C49.58 88.9802 40.45 90.2502 31.77 92.6102" stroke="#145536" stroke-width="1.2" stroke-miterlimit="10" stroke-linecap="round" stroke-linejoin="round"/>
<path d="M208.33 92.5002C199.76 90.2002 190.74 88.9702 181.44 88.9702C148.49 88.9702 119.15 104.37 100.18 128.35C106.63 129.4 113.25 129.95 119.99 129.95C154.67 129.95 185.99 115.59 208.33 92.5002Z" fill="#1DA042"/>
<path d="M208.33 92.5002C199.76 90.2002 190.74 88.9702 181.44 88.9702C149.04 88.9702 120.12 103.86 101.13 127.16" stroke="#145536" stroke-width="1.2" stroke-miterlimit="10" stroke-linecap="round" stroke-linejoin="round"/>
<path d="M56.91 85.3601C57.23 84.5901 57.4 83.7601 57.4 82.8801C57.4 79.2801 54.48 76.3701 50.89 76.3701C47.3 76.3701 44.38 79.2901 44.38 82.8801C44.38 83.7601 44.56 84.6001 44.87 85.3601C43.31 86.9101 42.35 89.0501 42.35 91.4201C42.35 96.1401 46.18 99.9701 50.9 99.9701C55.62 99.9701 59.45 96.1401 59.45 91.4201C59.44 89.0601 58.47 86.9101 56.91 85.3601Z" fill="white" stroke="#145536" stroke-width="1.2" stroke-miterlimit="10" stroke-linecap="round" stroke-linejoin="round"/>
<path d="M50.89 92.8201V105.06" stroke="#145536" stroke-width="1.2" stroke-miterlimit="10" stroke-linecap="round" stroke-linejoin="round"/>
<path d="M158.52 79.0601C158.2 78.2901 158.03 77.4601 158.03 76.5801C158.03 72.9801 160.95 70.0701 164.54 70.0701C168.13 70.0701 171.05 72.9901 171.05 76.5801C171.05 77.4601 170.87 78.3001 170.56 79.0601C172.12 80.6101 173.08 82.7501 173.08 85.1201C173.08 89.8401 169.25 93.6701 164.53 93.6701C159.81 93.6701 155.98 89.8401 155.98 85.1201C156 82.7501 156.97 80.6101 158.52 79.0601Z" fill="white" stroke="#145536" stroke-width="1.2" stroke-miterlimit="10" stroke-linecap="round" stroke-linejoin="round"/>
<path d="M164.55 87.6001V99.8301" stroke="#145536" stroke-width="1.2" stroke-miterlimit="10" stroke-linecap="round" stroke-linejoin="round"/>
<path d="M183.09 85.3601C182.77 84.5901 182.6 83.7601 182.6 82.8801C182.6 79.2801 185.52 76.3701 189.11 76.3701C192.7 76.3701 195.62 79.2901 195.62 82.8801C195.62 83.7601 195.44 84.6001 195.13 85.3601C196.69 86.9101 197.65 89.0501 197.65 91.4201C197.65 96.1401 193.82 99.9701 189.1 99.9701C184.38 99.9701 180.55 96.1401 180.55 91.4201C180.56 89.0601 181.53 86.9101 183.09 85.3601Z" fill="white" stroke="#145536" stroke-width="1.2" stroke-miterlimit="10" stroke-linecap="round" stroke-linejoin="round"/>
<path d="M189.11 92.8201V105.06" stroke="#145536" stroke-width="1.2" stroke-miterlimit="10" stroke-linecap="round" stroke-linejoin="round"/>
<path d="M133.75 5.22002C130.12 1.09002 123.82 0.940016 120 4.76002C116.17 0.930016 109.88 1.09002 106.25 5.22002C102.94 8.99002 103.36 14.77 106.91 18.31L117.78 29.18C119.01 30.41 120.99 30.41 122.22 29.18L133.09 18.31C136.64 14.76 137.06 8.99002 133.75 5.22002Z" fill="white" stroke="#145536" stroke-width="1.2" stroke-miterlimit="10" stroke-linecap="round" stroke-linejoin="round"/>
<path d="M120.01 19.74V21.44" stroke="#145536" stroke-width="1.2" stroke-miterlimit="10" stroke-linecap="round" stroke-linejoin="round"/>
<path d="M120.01 8.65991V10.3599" stroke="#145536" stroke-width="1.2" stroke-miterlimit="10" stroke-linecap="round" stroke-linejoin="round"/>
<path d="M122.57 12.9199C122.57 11.5099 121.43 10.3599 120.01 10.3599C118.6 10.3599 117.45 11.4999 117.45 12.9199C117.45 13.8999 118.16 14.7399 119.13 14.9099L120.88 15.1999C121.85 15.3599 122.56 16.1999 122.56 17.1899C122.56 18.5999 121.42 19.7499 120 19.7499C118.59 19.7499 117.44 18.6099 117.44 17.1899" stroke="#145536" stroke-width="1.2" stroke-miterlimit="10" stroke-linecap="round" stroke-linejoin="round"/>
<path d="M64.8901 36.1001C64.8901 31.9801 61.5501 28.6401 57.4301 28.6401C53.3101 28.6401 49.9701 31.9801 49.9701 36.1001C45.8501 36.1001 42.5101 39.4401 42.5101 43.5601C42.5101 47.6801 45.8501 51.0201 49.9701 51.0201H64.9001C69.0201 51.0201 72.3601 47.6801 72.3601 43.5601C72.3501 39.4401 69.0101 36.1001 64.8901 36.1001Z" fill="white" stroke="#1DA042" stroke-width="1.2" stroke-miterlimit="10" stroke-linecap="round" stroke-linejoin="round"/>
<path d="M149.5 29.6699V35.6699" stroke="#1DA042" stroke-width="1.2" stroke-miterlimit="10" stroke-linecap="round" stroke-linejoin="round"/>
<path d="M152.5 32.6699H146.5" stroke="#1DA042" stroke-width="1.2" stroke-miterlimit="10" stroke-linecap="round" stroke-linejoin="round"/>
<path d="M194 62.6101V68.6101" stroke="#1DA042" stroke-width="1.2" stroke-miterlimit="10" stroke-linecap="round" stroke-linejoin="round"/>
<path d="M197 65.6101H191" stroke="#1DA042" stroke-width="1.2" stroke-miterlimit="10" stroke-linecap="round" stroke-linejoin="round"/>
<path d="M172.11 36.1001C172.11 31.9801 175.45 28.6401 179.57 28.6401C183.69 28.6401 187.03 31.9801 187.03 36.1001C191.15 36.1001 194.49 39.4401 194.49 43.5601C194.49 47.6801 191.15 51.0201 187.03 51.0201H172.1C167.98 51.0201 164.64 47.6801 164.64 43.5601C164.64 39.4401 167.99 36.1001 172.11 36.1001Z" fill="white" stroke="#1DA042" stroke-width="1.2" stroke-miterlimit="10" stroke-linecap="round" stroke-linejoin="round"/>
<path d="M81.48 79.0601C81.8 78.2901 81.97 77.4601 81.97 76.5801C81.97 72.9801 79.05 70.0701 75.46 70.0701C71.87 70.0701 68.95 72.9901 68.95 76.5801C68.95 77.4601 69.13 78.3001 69.44 79.0601C67.88 80.6101 66.92 82.7501 66.92 85.1201C66.92 89.8401 70.75 93.6701 75.47 93.6701C80.19 93.6701 84.02 89.8401 84.02 85.1201C84 82.7501 83.03 80.6101 81.48 79.0601Z" fill="white" stroke="#145536" stroke-width="1.2" stroke-miterlimit="10" stroke-linecap="round" stroke-linejoin="round"/>
<path d="M75.4501 87.6001V99.8301" stroke="#145536" stroke-width="1.2" stroke-miterlimit="10" stroke-linecap="round" stroke-linejoin="round"/>
</svg>
