<svg width="1521" height="1028" viewBox="0 0 1521 1028" fill="none" xmlns="http://www.w3.org/2000/svg">
<g filter="url(#filter0_d)">
<rect x="33" width="1440" height="1020" fill="white"/>
</g>
<path d="M951.887 476.706V653.128" stroke="#3DD969" stroke-opacity="0.54" stroke-width="1.2" stroke-miterlimit="10" stroke-linecap="round" stroke-linejoin="round"/>
<path d="M571.886 640.581V476.706" stroke="#3DD969" stroke-opacity="0.54" stroke-width="1.2" stroke-miterlimit="10" stroke-linecap="round" stroke-linejoin="round"/>
<path d="M754.286 714.345V475.693L663.086 339.828L571.886 475.693V653.13" stroke="#3DD969" stroke-opacity="0.54" stroke-width="1.2" stroke-miterlimit="10" stroke-linecap="round" stroke-linejoin="round"/>
<path d="M678.286 677.273V537.858C678.286 529.43 671.51 522.65 663.086 522.65C654.663 522.65 647.886 529.43 647.886 537.858V664.852" stroke="#3DD969" stroke-opacity="0.54" stroke-width="1.2" stroke-miterlimit="10" stroke-linecap="round" stroke-linejoin="round"/>
<path d="M830.287 676.385V537.541C830.287 529.113 823.51 522.332 815.087 522.332C806.663 522.332 799.887 529.113 799.887 537.541V690.326" stroke="#3DD969" stroke-opacity="0.54" stroke-width="1.2" stroke-miterlimit="10" stroke-linecap="round" stroke-linejoin="round"/>
<path d="M906.287 648.185V537.541C906.287 529.113 899.51 522.332 891.087 522.332C882.663 522.332 875.887 529.113 875.887 537.541V657.691" stroke="#3DD969" stroke-opacity="0.54" stroke-width="1.2" stroke-miterlimit="10" stroke-linecap="round" stroke-linejoin="round"/>
<path d="M754.287 475.692L663.086 339.763H860.687L951.887 475.692C951.887 475.692 751.69 473.157 754.287 475.692Z" stroke="#3DD969" stroke-opacity="0.54" stroke-width="1.2" stroke-miterlimit="10" stroke-linecap="round" stroke-linejoin="round"/>
<path d="M951.887 475.692C951.887 475.692 751.69 473.094 754.286 475.692" stroke="#3DD969" stroke-opacity="0.54" stroke-width="1.2" stroke-miterlimit="10" stroke-linecap="round" stroke-linejoin="round"/>
<path d="M929.086 441.725C929.086 441.725 729.523 439.761 731.486 441.725" stroke="#3DD969" stroke-opacity="0.54" stroke-width="1.2" stroke-miterlimit="10" stroke-linecap="round" stroke-linejoin="round"/>
<path d="M906.286 407.759C906.286 407.759 707.42 406.492 708.686 407.759" stroke="#3DD969" stroke-opacity="0.54" stroke-width="1.2" stroke-miterlimit="10" stroke-linecap="round" stroke-linejoin="round"/>
<path d="M883.486 373.793C883.486 373.793 685.253 373.159 685.886 373.793" stroke="#3DD969" stroke-opacity="0.54" stroke-width="1.2" stroke-miterlimit="10" stroke-linecap="round" stroke-linejoin="round"/>
<path d="M663.086 339.826H860.686" stroke="#3DD969" stroke-opacity="0.54" stroke-width="1.2" stroke-miterlimit="10" stroke-linecap="round" stroke-linejoin="round"/>
<path d="M1020.67 267.142V305.164" stroke="#3DD969" stroke-opacity="0.54" stroke-width="1.2" stroke-miterlimit="10" stroke-linecap="round" stroke-linejoin="round"/>
<path d="M1001.67 286.152H1039.67" stroke="#3DD969" stroke-opacity="0.54" stroke-width="1.2" stroke-miterlimit="10" stroke-linecap="round" stroke-linejoin="round"/>
<path d="M1274 438.241V476.263" stroke="#3DD969" stroke-opacity="0.54" stroke-width="1.2" stroke-miterlimit="10" stroke-linecap="round" stroke-linejoin="round"/>
<path d="M1255 457.252H1293" stroke="#3DD969" stroke-opacity="0.54" stroke-width="1.2" stroke-miterlimit="10" stroke-linecap="round" stroke-linejoin="round"/>
<path d="M526.667 267.142V305.164" stroke="#3DD969" stroke-opacity="0.54" stroke-width="1.2" stroke-miterlimit="10" stroke-linecap="round" stroke-linejoin="round"/>
<path d="M507.667 286.152H545.667" stroke="#3DD969" stroke-opacity="0.54" stroke-width="1.2" stroke-miterlimit="10" stroke-linecap="round" stroke-linejoin="round"/>
<path d="M273.333 438.241V476.263" stroke="#3DD969" stroke-opacity="0.54" stroke-width="1.2" stroke-miterlimit="10" stroke-linecap="round" stroke-linejoin="round"/>
<path d="M254.333 457.252H292.333" stroke="#3DD969" stroke-opacity="0.54" stroke-width="1.2" stroke-miterlimit="10" stroke-linecap="round" stroke-linejoin="round"/>
<path d="M1342.08 865.672C1193.12 716.879 987.48 624.866 760.367 624.866C533.253 624.866 327.61 716.879 178.65 865.672" stroke="#3DD969" stroke-opacity="0.54" stroke-width="1.2" stroke-miterlimit="10" stroke-linecap="round" stroke-linejoin="round"/>
<path d="M1296.23 865.671C1155.25 735.826 967.087 656.55 760.367 656.55C553.647 656.55 365.484 735.826 224.504 865.671" stroke="#3DD969" stroke-opacity="0.54" stroke-width="1.2" stroke-miterlimit="10" stroke-linecap="round" stroke-linejoin="round"/>
<path d="M1248.29 865.672C1116.3 754.965 946.124 688.236 760.367 688.236C574.61 688.236 404.497 754.965 272.447 865.672" stroke="#3DD969" stroke-opacity="0.54" stroke-width="1.2" stroke-miterlimit="10" stroke-linecap="round" stroke-linejoin="round"/>
<path d="M1197.43 865.672C1075.7 774.165 924.4 719.921 760.367 719.921C596.333 719.921 445.03 774.165 323.303 865.672" stroke="#3DD969" stroke-opacity="0.54" stroke-width="1.2" stroke-miterlimit="10" stroke-linecap="round" stroke-linejoin="round"/>
<path d="M1142.33 865.672C1032.64 793.557 901.41 751.606 760.367 751.606C619.323 751.606 488.097 793.557 378.403 865.672" stroke="#3DD969" stroke-opacity="0.54" stroke-width="1.2" stroke-miterlimit="10" stroke-linecap="round" stroke-linejoin="round"/>
<path d="M1081.02 865.672C985.897 813.202 876.647 783.291 760.367 783.291C644.087 783.291 534.773 813.202 439.71 865.672" stroke="#3DD969" stroke-opacity="0.54" stroke-width="1.2" stroke-miterlimit="10" stroke-linecap="round" stroke-linejoin="round"/>
<path d="M1008.95 865.672C932.634 833.036 848.59 814.976 760.367 814.976C672.144 814.976 588.1 833.036 511.784 865.672" stroke="#3DD969" stroke-opacity="0.54" stroke-width="1.2" stroke-miterlimit="10" stroke-linecap="round" stroke-linejoin="round"/>
<path d="M910.973 865.671C862.84 853.251 812.363 846.661 760.367 846.661C708.37 846.661 657.893 853.251 609.76 865.671" stroke="#3DD969" stroke-opacity="0.54" stroke-width="1.2" stroke-miterlimit="10" stroke-linecap="round" stroke-linejoin="round"/>
<path d="M1486.36 640.074C1508.08 710.732 1519.73 785.826 1519.73 863.644C1519.73 864.341 1519.73 865.038 1519.73 865.672H746.75C895.71 716.879 1101.35 624.866 1328.47 624.866C1382.49 624.866 1435.25 630.125 1486.36 640.074Z" stroke="white" stroke-width="1.2" stroke-miterlimit="10" stroke-linecap="round"/>
<path d="M1495.98 674.357C1441.96 662.697 1385.91 656.55 1328.47 656.55C1121.75 656.55 933.583 735.826 792.603 865.671" stroke="#3DD969" stroke-opacity="0.54" stroke-width="1.2" stroke-miterlimit="10" stroke-linecap="round" stroke-linejoin="round"/>
<path d="M840.547 865.671C972.533 754.964 1142.71 688.235 1328.47 688.235C1388.89 688.235 1447.6 695.332 1503.9 708.64" stroke="#3DD969" stroke-opacity="0.54" stroke-width="1.2" stroke-miterlimit="10" stroke-linecap="round" stroke-linejoin="round"/>
<path d="M1510.17 742.797C1452.09 727.905 1391.23 719.921 1328.47 719.921C1164.5 719.921 1013.13 774.165 891.404 865.672" stroke="#3DD969" stroke-opacity="0.54" stroke-width="1.2" stroke-miterlimit="10" stroke-linecap="round" stroke-linejoin="round"/>
<path d="M946.503 865.672C1056.2 793.557 1187.42 751.606 1328.47 751.606C1393 751.606 1455.45 760.414 1514.79 776.827" stroke="#3DD969" stroke-opacity="0.54" stroke-width="1.2" stroke-miterlimit="10" stroke-linecap="round" stroke-linejoin="round"/>
<path d="M1517.9 810.729C1457.86 792.922 1394.33 783.29 1328.47 783.29C1212.19 783.29 1102.87 813.201 1007.81 865.671" stroke="#3DD969" stroke-opacity="0.54" stroke-width="1.2" stroke-miterlimit="10" stroke-linecap="round" stroke-linejoin="round"/>
<path d="M1079.88 865.672C1156.2 833.036 1240.24 814.976 1328.47 814.976C1395.03 814.976 1459.19 825.305 1519.48 844.316" stroke="#3DD969" stroke-opacity="0.54" stroke-width="1.2" stroke-miterlimit="10" stroke-linecap="round" stroke-linejoin="round"/>
<path d="M1479.07 865.671C1430.94 853.251 1380.46 846.661 1328.47 846.661C1276.47 846.661 1225.99 853.251 1177.86 865.671" stroke="#3DD969" stroke-opacity="0.54" stroke-width="1.2" stroke-miterlimit="10" stroke-linecap="round" stroke-linejoin="round"/>
<path d="M34.3767 640.075C12.6533 710.732 1 785.826 1 863.644C1 864.341 1 865.038 1 865.672H773.92C624.96 716.879 419.317 624.866 192.203 624.866C138.243 624.866 85.4867 630.126 34.3767 640.075Z" stroke="white" stroke-width="1.2" stroke-miterlimit="10" stroke-linecap="round"/>
<path d="M24.7499 674.357C78.7732 662.697 134.823 656.55 192.267 656.55C398.987 656.55 587.15 735.826 728.13 865.671" stroke="#3DD969" stroke-opacity="0.54" stroke-width="1.2" stroke-miterlimit="10" stroke-linecap="round" stroke-linejoin="round"/>
<path d="M680.187 865.672C548.2 754.965 378.024 688.236 192.267 688.236C131.847 688.236 73.1369 695.333 16.8336 708.641" stroke="#3DD969" stroke-opacity="0.54" stroke-width="1.2" stroke-miterlimit="10" stroke-linecap="round" stroke-linejoin="round"/>
<path d="M10.5635 742.797C68.6402 727.905 129.504 719.921 192.267 719.921C356.237 719.921 507.604 774.165 629.33 865.672" stroke="#3DD969" stroke-opacity="0.54" stroke-width="1.2" stroke-miterlimit="10" stroke-linecap="round" stroke-linejoin="round"/>
<path d="M574.23 865.672C464.536 793.557 333.31 751.606 192.266 751.606C127.73 751.606 65.2831 760.414 5.9398 776.827" stroke="#3DD969" stroke-opacity="0.54" stroke-width="1.2" stroke-miterlimit="10" stroke-linecap="round" stroke-linejoin="round"/>
<path d="M2.83659 810.73C62.8766 792.923 126.4 783.291 192.267 783.291C308.547 783.291 417.86 813.202 512.923 865.672" stroke="#3DD969" stroke-opacity="0.54" stroke-width="1.2" stroke-miterlimit="10" stroke-linecap="round" stroke-linejoin="round"/>
<path d="M440.85 865.672C364.533 833.036 280.49 814.976 192.267 814.976C125.703 814.976 61.5467 825.305 1.25341 844.316" stroke="#3DD969" stroke-opacity="0.54" stroke-width="1.2" stroke-miterlimit="10" stroke-linecap="round" stroke-linejoin="round"/>
<path d="M41.6597 865.671C89.7931 853.251 140.27 846.661 192.266 846.661C244.263 846.661 294.74 853.251 342.873 865.671" stroke="#3DD969" stroke-opacity="0.54" stroke-width="1.2" stroke-miterlimit="10" stroke-linecap="round" stroke-linejoin="round"/>
<path d="M1486.36 640.074C1435.25 630.125 1382.49 624.866 1328.47 624.866C1108.19 624.866 908.123 711.429 760.367 852.428C612.61 711.429 412.54 624.866 192.267 624.866C138.243 624.866 85.4865 630.125 34.3765 640.074" stroke="#3DD969" stroke-opacity="0.54" stroke-width="1.2" stroke-miterlimit="10" stroke-linecap="round" stroke-linejoin="round"/>
<path d="M517.04 542.485C519.067 537.605 520.143 532.346 520.143 526.769C520.143 503.956 501.65 485.515 478.913 485.515C456.177 485.515 437.683 504.019 437.683 526.769C437.683 532.346 438.823 537.669 440.787 542.485C430.907 552.307 424.827 565.868 424.827 580.887C424.827 610.798 449.083 635.068 478.977 635.068C508.87 635.068 533.127 610.798 533.127 580.887C533 565.868 526.857 552.307 517.04 542.485Z" stroke="#3DD969" stroke-opacity="0.54" stroke-width="1.2" stroke-miterlimit="10" stroke-linecap="round" stroke-linejoin="round"/>
<path d="M478.85 596.603V674.104" stroke="#3DD969" stroke-opacity="0.54" stroke-width="1.2" stroke-miterlimit="10" stroke-linecap="round" stroke-linejoin="round"/>
<path d="M342.43 601.419C344.457 596.54 345.533 591.28 345.533 585.703C345.533 562.89 327.04 544.449 304.303 544.449C281.503 544.449 263.073 562.953 263.073 585.703C263.073 591.28 264.213 596.603 266.177 601.419C256.297 611.241 250.217 624.803 250.217 639.821C250.217 669.732 274.473 694.003 304.367 694.003C334.26 694.003 358.517 669.732 358.517 639.821C358.453 624.866 352.31 611.241 342.43 601.419Z" stroke="#3DD969" stroke-opacity="0.54" stroke-width="1.2" stroke-miterlimit="10" stroke-linecap="round" stroke-linejoin="round"/>
<path d="M304.303 648.693V726.258" stroke="#3DD969" stroke-opacity="0.54" stroke-width="1.2" stroke-miterlimit="10" stroke-linecap="round" stroke-linejoin="round"/>
<path d="M175.61 689.123C177.637 684.244 178.713 678.984 178.713 673.407C178.713 650.594 160.22 632.153 137.483 632.153C114.747 632.153 96.2534 650.657 96.2534 673.407C96.2534 678.984 97.3934 684.307 99.3567 689.123C89.4767 698.945 83.3967 712.507 83.3967 727.525C83.3967 757.436 107.653 781.707 137.547 781.707C167.44 781.707 191.697 757.436 191.697 727.525C191.57 712.507 185.49 698.882 175.61 689.123Z" stroke="#3DD969" stroke-opacity="0.54" stroke-width="1.2" stroke-miterlimit="10" stroke-linecap="round" stroke-linejoin="round"/>
<path d="M137.483 736.333V813.898" stroke="#3DD969" stroke-opacity="0.54" stroke-width="1.2" stroke-miterlimit="10" stroke-linecap="round" stroke-linejoin="round"/>
<path d="M1004.96 542.485C1002.93 537.605 1001.86 532.345 1001.86 526.769C1001.86 503.956 1020.35 485.515 1043.09 485.515C1065.82 485.515 1084.32 504.019 1084.32 526.769C1084.32 532.345 1083.18 537.668 1081.21 542.485C1091.09 552.307 1097.17 565.868 1097.17 580.887C1097.17 610.798 1072.92 635.068 1043.02 635.068C1013.13 635.068 988.874 610.798 988.874 580.887C989 565.868 995.144 552.307 1004.96 542.485Z" stroke="#3DD969" stroke-opacity="0.54" stroke-width="1.2" stroke-miterlimit="10" stroke-linecap="round" stroke-linejoin="round"/>
<path d="M1043.15 596.603V674.104" stroke="#3DD969" stroke-opacity="0.54" stroke-width="1.2" stroke-miterlimit="10" stroke-linecap="round" stroke-linejoin="round"/>
<path d="M1179.57 601.419C1177.54 596.54 1176.47 591.28 1176.47 585.703C1176.47 562.89 1194.96 544.449 1217.7 544.449C1240.5 544.449 1258.93 562.953 1258.93 585.703C1258.93 591.28 1257.79 596.603 1255.82 601.419C1265.7 611.241 1271.78 624.803 1271.78 639.821C1271.78 669.732 1247.53 694.003 1217.63 694.003C1187.74 694.003 1163.48 669.732 1163.48 639.821C1163.55 624.866 1169.69 611.241 1179.57 601.419Z" stroke="#3DD969" stroke-opacity="0.54" stroke-width="1.2" stroke-miterlimit="10" stroke-linecap="round" stroke-linejoin="round"/>
<path d="M1217.7 648.693V726.258" stroke="#3DD969" stroke-opacity="0.54" stroke-width="1.2" stroke-miterlimit="10" stroke-linecap="round" stroke-linejoin="round"/>
<path d="M1346.39 689.123C1344.36 684.244 1343.29 678.984 1343.29 673.407C1343.29 650.594 1361.78 632.153 1384.52 632.153C1407.32 632.153 1425.75 650.657 1425.75 673.407C1425.75 678.984 1424.61 684.307 1422.64 689.123C1432.52 698.945 1438.6 712.507 1438.6 727.525C1438.6 757.436 1414.35 781.707 1384.45 781.707C1354.56 781.707 1330.3 757.436 1330.3 727.525C1330.43 712.507 1336.51 698.882 1346.39 689.123Z" stroke="#3DD969" stroke-opacity="0.54" stroke-width="1.2" stroke-miterlimit="10" stroke-linecap="round" stroke-linejoin="round"/>
<path d="M1384.52 736.333V813.898" stroke="#3DD969" stroke-opacity="0.54" stroke-width="1.2" stroke-miterlimit="10" stroke-linecap="round" stroke-linejoin="round"/>
<path d="M848.083 74.5599C825.093 48.388 785.193 47.4375 761 71.6449C736.743 47.3741 696.907 48.388 673.917 74.5599C652.953 98.4504 655.613 135.078 678.097 157.511L746.94 226.395C754.73 234.189 767.27 234.189 775.06 226.395L843.903 157.511C866.387 135.015 869.047 98.4504 848.083 74.5599Z" stroke="#3DD969" stroke-opacity="0.54" stroke-width="1.2" stroke-miterlimit="10" stroke-linecap="round" stroke-linejoin="round"/>
<path d="M757.897 168.665V179.438" stroke="#3DD969" stroke-opacity="0.54" stroke-width="1.2" stroke-miterlimit="10" stroke-linecap="round" stroke-linejoin="round"/>
<path d="M757.897 98.4502V109.223" stroke="#3DD969" stroke-opacity="0.54" stroke-width="1.2" stroke-miterlimit="10" stroke-linecap="round" stroke-linejoin="round"/>
<path d="M774.11 125.446C774.11 116.511 766.89 109.223 757.896 109.223C748.966 109.223 741.683 116.447 741.683 125.446C741.683 131.656 746.18 136.979 752.323 138.056L763.406 139.894C769.55 140.908 774.047 146.231 774.047 152.505C774.047 161.44 766.826 168.728 757.833 168.728C748.903 168.728 741.62 161.503 741.62 152.505" stroke="#3DD969" stroke-opacity="0.54" stroke-width="1.2" stroke-miterlimit="10" stroke-linecap="round" stroke-linejoin="round"/>
<path d="M1279.19 270.247C1279.19 244.138 1258.04 222.973 1231.95 222.973C1205.85 222.973 1184.7 244.138 1184.7 270.247C1158.61 270.247 1137.45 291.412 1137.45 317.521C1137.45 343.629 1158.61 364.795 1184.7 364.795H1279.26C1305.35 364.795 1326.5 343.629 1326.5 317.521C1326.5 291.412 1305.35 270.247 1279.19 270.247Z" stroke="#3DD969" stroke-opacity="0.54" stroke-width="1.2" stroke-miterlimit="10" stroke-linecap="round" stroke-linejoin="round"/>
<path d="M337.3 270.247C337.3 244.138 316.147 222.973 290.053 222.973C263.96 222.973 242.807 244.138 242.807 270.247C216.713 270.247 195.56 291.412 195.56 317.521C195.56 343.629 216.713 364.795 242.807 364.795H337.3C363.393 364.795 384.547 343.629 384.547 317.521C384.61 291.412 363.457 270.247 337.3 270.247Z" stroke="#3DD969" stroke-opacity="0.54" stroke-width="1.2" stroke-miterlimit="10" stroke-linecap="round" stroke-linejoin="round"/>
<defs>
<filter id="filter0_d" x="29" y="0" width="1448" height="1028" filterUnits="userSpaceOnUse" color-interpolation-filters="sRGB">
<feFlood flood-opacity="0" result="BackgroundImageFix"/>
<feColorMatrix in="SourceAlpha" type="matrix" values="0 0 0 0 0 0 0 0 0 0 0 0 0 0 0 0 0 0 127 0"/>
<feOffset dy="4"/>
<feGaussianBlur stdDeviation="2"/>
<feColorMatrix type="matrix" values="0 0 0 0 0 0 0 0 0 0 0 0 0 0 0 0 0 0 0.25 0"/>
<feBlend mode="normal" in2="BackgroundImageFix" result="effect1_dropShadow"/>
<feBlend mode="normal" in="SourceGraphic" in2="effect1_dropShadow" result="shape"/>
</filter>
</defs>
</svg>
