<svg width="1521" height="837" viewBox="0 0 1521 837" fill="none" xmlns="http://www.w3.org/2000/svg">
<path d="M1486.36 599.074C1508.08 669.732 1519.73 744.826 1519.73 822.644C1519.73 823.341 1519.73 824.038 1519.73 824.672H746.75C895.71 675.879 1101.35 583.866 1328.47 583.866C1382.49 583.866 1435.25 589.125 1486.36 599.074Z" stroke="#1DA042" stroke-width="1.2" stroke-miterlimit="10" stroke-linecap="round"/>
<path d="M34.3767 599.075C12.6533 669.732 1 744.826 1 822.644C1 823.341 1 824.038 1 824.672H773.92C624.96 675.879 419.317 583.866 192.203 583.866C138.243 583.866 85.4867 589.126 34.3767 599.075Z" stroke="#3DD969" stroke-width="1.2" stroke-miterlimit="10" stroke-linecap="round"/>
<path d="M951.887 435.706V612.128" stroke="#1DA042" stroke-width="1.2" stroke-miterlimit="10" stroke-linecap="round" stroke-linejoin="round"/>
<path d="M571.886 599.581V435.706" stroke="#1DA042" stroke-width="1.2" stroke-miterlimit="10" stroke-linecap="round" stroke-linejoin="round"/>
<path d="M754.286 673.345V434.693L663.086 298.828L571.886 434.693V612.13" stroke="#1DA042" stroke-width="1.2" stroke-miterlimit="10" stroke-linecap="round" stroke-linejoin="round"/>
<path d="M678.286 636.273V496.858C678.286 488.43 671.51 481.65 663.086 481.65C654.663 481.65 647.886 488.43 647.886 496.858V623.852" stroke="#1DA042" stroke-width="1.2" stroke-miterlimit="10" stroke-linecap="round" stroke-linejoin="round"/>
<path d="M830.287 635.385V496.541C830.287 488.113 823.51 481.332 815.087 481.332C806.663 481.332 799.887 488.113 799.887 496.541V649.326" stroke="#1DA042" stroke-width="1.2" stroke-miterlimit="10" stroke-linecap="round" stroke-linejoin="round"/>
<path d="M906.287 607.185V496.541C906.287 488.113 899.51 481.332 891.087 481.332C882.663 481.332 875.887 488.113 875.887 496.541V616.691" stroke="#1DA042" stroke-width="1.2" stroke-miterlimit="10" stroke-linecap="round" stroke-linejoin="round"/>
<path d="M754.287 434.692L663.086 298.763H860.687L951.887 434.692C951.887 434.692 751.69 432.157 754.287 434.692Z" stroke="#1DA042" stroke-width="1.2" stroke-miterlimit="10" stroke-linecap="round" stroke-linejoin="round"/>
<path d="M951.887 434.692C951.887 434.692 751.69 432.094 754.286 434.692" stroke="#1DA042" stroke-width="1.2" stroke-miterlimit="10" stroke-linecap="round" stroke-linejoin="round"/>
<path d="M929.086 400.725C929.086 400.725 729.523 398.761 731.486 400.725" stroke="#1DA042" stroke-width="1.2" stroke-miterlimit="10" stroke-linecap="round" stroke-linejoin="round"/>
<path d="M906.286 366.759C906.286 366.759 707.42 365.492 708.686 366.759" stroke="#1DA042" stroke-width="1.2" stroke-miterlimit="10" stroke-linecap="round" stroke-linejoin="round"/>
<path d="M883.486 332.793C883.486 332.793 685.253 332.159 685.886 332.793" stroke="#1DA042" stroke-width="1.2" stroke-miterlimit="10" stroke-linecap="round" stroke-linejoin="round"/>
<path d="M663.086 298.826H860.686" stroke="#1DA042" stroke-width="1.2" stroke-miterlimit="10" stroke-linecap="round" stroke-linejoin="round"/>
<path d="M1020.67 226.142V264.164" stroke="#1DA042" stroke-width="1.2" stroke-miterlimit="10" stroke-linecap="round" stroke-linejoin="round"/>
<path d="M1001.67 245.152H1039.67" stroke="#1DA042" stroke-width="1.2" stroke-miterlimit="10" stroke-linecap="round" stroke-linejoin="round"/>
<path d="M1274 397.241V435.263" stroke="#1DA042" stroke-width="1.2" stroke-miterlimit="10" stroke-linecap="round" stroke-linejoin="round"/>
<path d="M1255 416.252H1293" stroke="#1DA042" stroke-width="1.2" stroke-miterlimit="10" stroke-linecap="round" stroke-linejoin="round"/>
<path d="M526.667 226.142V264.164" stroke="#1DA042" stroke-width="1.2" stroke-miterlimit="10" stroke-linecap="round" stroke-linejoin="round"/>
<path d="M507.667 245.152H545.667" stroke="#1DA042" stroke-width="1.2" stroke-miterlimit="10" stroke-linecap="round" stroke-linejoin="round"/>
<path d="M273.333 397.241V435.263" stroke="#1DA042" stroke-width="1.2" stroke-miterlimit="10" stroke-linecap="round" stroke-linejoin="round"/>
<path d="M254.333 416.252H292.333" stroke="#1DA042" stroke-width="1.2" stroke-miterlimit="10" stroke-linecap="round" stroke-linejoin="round"/>
<path d="M1342.08 824.672C1193.12 675.879 987.48 583.866 760.367 583.866C533.253 583.866 327.61 675.879 178.65 824.672" stroke="#1DA042" stroke-width="1.2" stroke-miterlimit="10" stroke-linecap="round" stroke-linejoin="round"/>
<path d="M1296.23 824.671C1155.25 694.826 967.087 615.55 760.367 615.55C553.647 615.55 365.484 694.826 224.504 824.671" stroke="#1DA042" stroke-width="1.2" stroke-miterlimit="10" stroke-linecap="round" stroke-linejoin="round"/>
<path d="M1248.29 824.672C1116.3 713.965 946.124 647.236 760.367 647.236C574.61 647.236 404.497 713.965 272.447 824.672" stroke="#1DA042" stroke-width="1.2" stroke-miterlimit="10" stroke-linecap="round" stroke-linejoin="round"/>
<path d="M1197.43 824.672C1075.7 733.165 924.4 678.921 760.367 678.921C596.333 678.921 445.03 733.165 323.303 824.672" stroke="#1DA042" stroke-width="1.2" stroke-miterlimit="10" stroke-linecap="round" stroke-linejoin="round"/>
<path d="M1142.33 824.672C1032.64 752.557 901.41 710.606 760.367 710.606C619.323 710.606 488.097 752.557 378.403 824.672" stroke="#1DA042" stroke-width="1.2" stroke-miterlimit="10" stroke-linecap="round" stroke-linejoin="round"/>
<path d="M1081.02 824.672C985.897 772.202 876.647 742.291 760.367 742.291C644.087 742.291 534.773 772.202 439.71 824.672" stroke="#1DA042" stroke-width="1.2" stroke-miterlimit="10" stroke-linecap="round" stroke-linejoin="round"/>
<path d="M1008.95 824.672C932.634 792.036 848.59 773.976 760.367 773.976C672.144 773.976 588.1 792.036 511.784 824.672" stroke="#1DA042" stroke-width="1.2" stroke-miterlimit="10" stroke-linecap="round" stroke-linejoin="round"/>
<path d="M910.973 824.671C862.84 812.251 812.363 805.661 760.367 805.661C708.37 805.661 657.893 812.251 609.76 824.671" stroke="#1DA042" stroke-width="1.2" stroke-miterlimit="10" stroke-linecap="round" stroke-linejoin="round"/>
<path d="M1495.98 633.357C1441.96 621.697 1385.91 615.55 1328.47 615.55C1121.75 615.55 933.583 694.826 792.603 824.671" stroke="#1DA042" stroke-width="1.2" stroke-miterlimit="10" stroke-linecap="round" stroke-linejoin="round"/>
<path d="M840.547 824.671C972.533 713.964 1142.71 647.235 1328.47 647.235C1388.89 647.235 1447.6 654.332 1503.9 667.64" stroke="#1DA042" stroke-width="1.2" stroke-miterlimit="10" stroke-linecap="round" stroke-linejoin="round"/>
<path d="M1510.17 701.797C1452.09 686.905 1391.23 678.921 1328.47 678.921C1164.5 678.921 1013.13 733.165 891.404 824.672" stroke="#1DA042" stroke-width="1.2" stroke-miterlimit="10" stroke-linecap="round" stroke-linejoin="round"/>
<path d="M946.503 824.672C1056.2 752.557 1187.42 710.606 1328.47 710.606C1393 710.606 1455.45 719.414 1514.79 735.827" stroke="#1DA042" stroke-width="1.2" stroke-miterlimit="10" stroke-linecap="round" stroke-linejoin="round"/>
<path d="M1517.9 769.729C1457.86 751.922 1394.33 742.29 1328.47 742.29C1212.19 742.29 1102.87 772.201 1007.81 824.671" stroke="#1DA042" stroke-width="1.2" stroke-miterlimit="10" stroke-linecap="round" stroke-linejoin="round"/>
<path d="M1079.88 824.672C1156.2 792.036 1240.24 773.976 1328.47 773.976C1395.03 773.976 1459.19 784.305 1519.48 803.316" stroke="#1DA042" stroke-width="1.2" stroke-miterlimit="10" stroke-linecap="round" stroke-linejoin="round"/>
<path d="M1479.07 824.671C1430.94 812.251 1380.46 805.661 1328.47 805.661C1276.47 805.661 1225.99 812.251 1177.86 824.671" stroke="#1DA042" stroke-width="1.2" stroke-miterlimit="10" stroke-linecap="round" stroke-linejoin="round"/>
<path d="M24.7499 633.357C78.7732 621.697 134.823 615.55 192.267 615.55C398.987 615.55 587.15 694.826 728.13 824.671" stroke="#1DA042" stroke-width="1.2" stroke-miterlimit="10" stroke-linecap="round" stroke-linejoin="round"/>
<path d="M680.187 824.672C548.2 713.965 378.024 647.236 192.267 647.236C131.847 647.236 73.1369 654.333 16.8336 667.641" stroke="#1DA042" stroke-width="1.2" stroke-miterlimit="10" stroke-linecap="round" stroke-linejoin="round"/>
<path d="M10.5635 701.797C68.6402 686.905 129.504 678.921 192.267 678.921C356.237 678.921 507.604 733.165 629.33 824.672" stroke="#1DA042" stroke-width="1.2" stroke-miterlimit="10" stroke-linecap="round" stroke-linejoin="round"/>
<path d="M574.23 824.672C464.536 752.557 333.31 710.606 192.266 710.606C127.73 710.606 65.2831 719.414 5.9398 735.827" stroke="#1DA042" stroke-width="1.2" stroke-miterlimit="10" stroke-linecap="round" stroke-linejoin="round"/>
<path d="M2.83659 769.73C62.8766 751.923 126.4 742.291 192.267 742.291C308.547 742.291 417.86 772.202 512.923 824.672" stroke="#1DA042" stroke-width="1.2" stroke-miterlimit="10" stroke-linecap="round" stroke-linejoin="round"/>
<path d="M440.85 824.672C364.533 792.036 280.49 773.976 192.267 773.976C125.703 773.976 61.5467 784.305 1.25341 803.316" stroke="#1DA042" stroke-width="1.2" stroke-miterlimit="10" stroke-linecap="round" stroke-linejoin="round"/>
<path d="M41.6597 824.671C89.7931 812.251 140.27 805.661 192.266 805.661C244.263 805.661 294.74 812.251 342.873 824.671" stroke="#1DA042" stroke-width="1.2" stroke-miterlimit="10" stroke-linecap="round" stroke-linejoin="round"/>
<path d="M1486.36 599.074C1435.25 589.125 1382.49 583.866 1328.47 583.866C1108.19 583.866 908.123 670.429 760.367 811.428C612.61 670.429 412.54 583.866 192.267 583.866C138.243 583.866 85.4865 589.125 34.3765 599.074" stroke="#1DA042" stroke-width="1.2" stroke-miterlimit="10" stroke-linecap="round" stroke-linejoin="round"/>
<path d="M517.04 501.485C519.067 496.605 520.143 491.346 520.143 485.769C520.143 462.956 501.65 444.515 478.913 444.515C456.177 444.515 437.683 463.019 437.683 485.769C437.683 491.346 438.823 496.669 440.787 501.485C430.907 511.307 424.827 524.868 424.827 539.887C424.827 569.798 449.083 594.068 478.977 594.068C508.87 594.068 533.127 569.798 533.127 539.887C533 524.868 526.857 511.307 517.04 501.485Z" stroke="#1DA042" stroke-width="1.2" stroke-miterlimit="10" stroke-linecap="round" stroke-linejoin="round"/>
<path d="M478.85 555.603V633.104" stroke="#1DA042" stroke-width="1.2" stroke-miterlimit="10" stroke-linecap="round" stroke-linejoin="round"/>
<path d="M342.43 560.419C344.457 555.54 345.533 550.28 345.533 544.703C345.533 521.89 327.04 503.449 304.303 503.449C281.503 503.449 263.073 521.953 263.073 544.703C263.073 550.28 264.213 555.603 266.177 560.419C256.297 570.241 250.217 583.803 250.217 598.821C250.217 628.732 274.473 653.003 304.367 653.003C334.26 653.003 358.517 628.732 358.517 598.821C358.453 583.866 352.31 570.241 342.43 560.419Z" stroke="#1DA042" stroke-width="1.2" stroke-miterlimit="10" stroke-linecap="round" stroke-linejoin="round"/>
<path d="M304.303 607.693V685.258" stroke="#1DA042" stroke-width="1.2" stroke-miterlimit="10" stroke-linecap="round" stroke-linejoin="round"/>
<path d="M175.61 648.123C177.637 643.244 178.713 637.984 178.713 632.407C178.713 609.594 160.22 591.153 137.483 591.153C114.747 591.153 96.2534 609.657 96.2534 632.407C96.2534 637.984 97.3934 643.307 99.3567 648.123C89.4767 657.945 83.3967 671.507 83.3967 686.525C83.3967 716.436 107.653 740.707 137.547 740.707C167.44 740.707 191.697 716.436 191.697 686.525C191.57 671.507 185.49 657.882 175.61 648.123Z" stroke="#1DA042" stroke-width="1.2" stroke-miterlimit="10" stroke-linecap="round" stroke-linejoin="round"/>
<path d="M137.483 695.333V772.898" stroke="#1DA042" stroke-width="1.2" stroke-miterlimit="10" stroke-linecap="round" stroke-linejoin="round"/>
<path d="M1004.96 501.485C1002.93 496.605 1001.86 491.345 1001.86 485.769C1001.86 462.956 1020.35 444.515 1043.09 444.515C1065.82 444.515 1084.32 463.019 1084.32 485.769C1084.32 491.345 1083.18 496.668 1081.21 501.485C1091.09 511.307 1097.17 524.868 1097.17 539.887C1097.17 569.798 1072.92 594.068 1043.02 594.068C1013.13 594.068 988.874 569.798 988.874 539.887C989 524.868 995.144 511.307 1004.96 501.485Z" stroke="#1DA042" stroke-width="1.2" stroke-miterlimit="10" stroke-linecap="round" stroke-linejoin="round"/>
<path d="M1043.15 555.603V633.104" stroke="#1DA042" stroke-width="1.2" stroke-miterlimit="10" stroke-linecap="round" stroke-linejoin="round"/>
<path d="M1179.57 560.419C1177.54 555.54 1176.47 550.28 1176.47 544.703C1176.47 521.89 1194.96 503.449 1217.7 503.449C1240.5 503.449 1258.93 521.953 1258.93 544.703C1258.93 550.28 1257.79 555.603 1255.82 560.419C1265.7 570.241 1271.78 583.803 1271.78 598.821C1271.78 628.732 1247.53 653.003 1217.63 653.003C1187.74 653.003 1163.48 628.732 1163.48 598.821C1163.55 583.866 1169.69 570.241 1179.57 560.419Z" stroke="#1DA042" stroke-width="1.2" stroke-miterlimit="10" stroke-linecap="round" stroke-linejoin="round"/>
<path d="M1217.7 607.693V685.258" stroke="#1DA042" stroke-width="1.2" stroke-miterlimit="10" stroke-linecap="round" stroke-linejoin="round"/>
<path d="M1346.39 648.123C1344.36 643.244 1343.29 637.984 1343.29 632.407C1343.29 609.594 1361.78 591.153 1384.52 591.153C1407.32 591.153 1425.75 609.657 1425.75 632.407C1425.75 637.984 1424.61 643.307 1422.64 648.123C1432.52 657.945 1438.6 671.507 1438.6 686.525C1438.6 716.436 1414.35 740.707 1384.45 740.707C1354.56 740.707 1330.3 716.436 1330.3 686.525C1330.43 671.507 1336.51 657.882 1346.39 648.123Z" stroke="#1DA042" stroke-width="1.2" stroke-miterlimit="10" stroke-linecap="round" stroke-linejoin="round"/>
<path d="M1384.52 695.333V772.898" stroke="#1DA042" stroke-width="1.2" stroke-miterlimit="10" stroke-linecap="round" stroke-linejoin="round"/>
<path d="M848.083 33.5599C825.093 7.38804 785.193 6.43749 761 30.6449C736.743 6.37412 696.907 7.38804 673.917 33.5599C652.953 57.4504 655.613 94.0783 678.097 116.511L746.94 185.395C754.73 193.189 767.27 193.189 775.06 185.395L843.903 116.511C866.387 94.015 869.047 57.4504 848.083 33.5599Z" stroke="#1DA042" stroke-width="1.2" stroke-miterlimit="10" stroke-linecap="round" stroke-linejoin="round"/>
<path d="M757.897 127.665V138.438" stroke="#1DA042" stroke-width="1.2" stroke-miterlimit="10" stroke-linecap="round" stroke-linejoin="round"/>
<path d="M757.897 57.4502V68.2231" stroke="#1DA042" stroke-width="1.2" stroke-miterlimit="10" stroke-linecap="round" stroke-linejoin="round"/>
<path d="M774.11 84.4458C774.11 75.5106 766.89 68.223 757.896 68.223C748.966 68.223 741.683 75.4472 741.683 84.4458C741.683 90.656 746.18 95.9791 752.323 97.0564L763.406 98.8941C769.55 99.9081 774.047 105.231 774.047 111.505C774.047 120.44 766.826 127.728 757.833 127.728C748.903 127.728 741.62 120.503 741.62 111.505" stroke="#1DA042" stroke-width="1.2" stroke-miterlimit="10" stroke-linecap="round" stroke-linejoin="round"/>
<path d="M1279.19 229.247C1279.19 203.138 1258.04 181.973 1231.95 181.973C1205.85 181.973 1184.7 203.138 1184.7 229.247C1158.61 229.247 1137.45 250.412 1137.45 276.521C1137.45 302.629 1158.61 323.795 1184.7 323.795H1279.26C1305.35 323.795 1326.5 302.629 1326.5 276.521C1326.5 250.412 1305.35 229.247 1279.19 229.247Z" stroke="#1DA042" stroke-width="1.2" stroke-miterlimit="10" stroke-linecap="round" stroke-linejoin="round"/>
<path d="M337.3 229.247C337.3 203.138 316.147 181.973 290.053 181.973C263.96 181.973 242.807 203.138 242.807 229.247C216.713 229.247 195.56 250.412 195.56 276.521C195.56 302.629 216.713 323.795 242.807 323.795H337.3C363.393 323.795 384.547 302.629 384.547 276.521C384.61 250.412 363.457 229.247 337.3 229.247Z" stroke="#1DA042" stroke-width="1.2" stroke-miterlimit="10" stroke-linecap="round" stroke-linejoin="round"/>
</svg>
