<svg width="240" height="132" viewBox="0 0 240 132" fill="none" xmlns="http://www.w3.org/2000/svg">
<path d="M142 78.48C138.55 77.59 136 74.47 136 70.74C136 67.01 138.55 63.89 142 63" stroke="#1DA042" stroke-width="1.5" stroke-miterlimit="10" stroke-linecap="round" stroke-linejoin="round"/>
<path d="M22 130V82C22 58.8 40.8 40 64 40C85.97 40 104 56.87 105.84 78.36" stroke="#1DA042" stroke-width="1.5" stroke-miterlimit="10" stroke-linecap="round" stroke-linejoin="round"/>
<path d="M110 97.7V78H108.95C104.32 78 100.19 80.1 97.4404 83.4" stroke="#1DA042" stroke-width="1.2" stroke-miterlimit="10" stroke-linecap="round" stroke-linejoin="round"/>
<path d="M46.4902 130C47.6902 122.43 51.1202 115.6 56.1002 110.22C56.0402 109.48 56.0002 108.75 56.0002 108C56.0002 92.54 68.5402 80 84.0002 80C99.4602 80 112 92.54 112 108C112 108.75 111.96 109.49 111.9 110.22C116.88 115.6 120.32 122.43 121.53 130" stroke="#1DA042" stroke-width="1.2" stroke-miterlimit="10" stroke-linecap="round" stroke-linejoin="round"/>
<path d="M76 99C76 100.66 74.66 102 73 102C71.34 102 70 100.66 70 99" stroke="#1DA042" stroke-width="1.2" stroke-miterlimit="10" stroke-linecap="round" stroke-linejoin="round"/>
<path d="M98 99C98 100.66 96.66 102 95 102C93.34 102 92 100.66 92 99" stroke="#1DA042" stroke-width="1.2" stroke-miterlimit="10" stroke-linecap="round" stroke-linejoin="round"/>
<path d="M84 120C89.5118 120 93.98 116.418 93.98 112C93.98 107.582 89.5118 104 84 104C78.4882 104 74.02 107.582 74.02 112C74.02 116.418 78.4882 120 84 120Z" stroke="#1DA042" stroke-width="1.2" stroke-miterlimit="10" stroke-linecap="round" stroke-linejoin="round"/>
<path d="M88 110V114" stroke="#1DA042" stroke-width="1.2" stroke-miterlimit="10" stroke-linecap="round" stroke-linejoin="round"/>
<path d="M80 110V114" stroke="#1DA042" stroke-width="1.2" stroke-miterlimit="10" stroke-linecap="round" stroke-linejoin="round"/>
<path d="M151 48V38" stroke="#1DA042" stroke-width="1.2" stroke-miterlimit="10" stroke-linecap="round" stroke-linejoin="round"/>
<path d="M217 112.98V80.98C217 76.56 213.42 72.98 209 72.98C204.58 72.98 201 76.56 201 80.98V112.98" stroke="#1DA042" stroke-width="1.2" stroke-miterlimit="10" stroke-linecap="round" stroke-linejoin="round"/>
<path d="M233 129.98V88.98C233 84.56 229.42 80.98 225 80.98C220.58 80.98 217 84.56 217 88.98V112.98" stroke="#1DA042" stroke-width="1.2" stroke-miterlimit="10" stroke-linecap="round" stroke-linejoin="round"/>
<path d="M201 112.98V88.98C201 84.56 197.42 80.98 193 80.98C188.58 80.98 185 84.56 185 88.98V99.98C185 107.16 179.18 112.98 172 112.98C164.82 112.98 159 107.16 159 99.98V57C159 52.58 155.42 49 151 49C146.58 49 143 52.58 143 57V84.74C131.95 94.63 125 108.99 125 124.99" stroke="#1DA042" stroke-width="1.2" stroke-miterlimit="10" stroke-linecap="round" stroke-linejoin="round"/>
<path d="M143 56L130 59L143 62" stroke="#1DA042" stroke-width="1.2" stroke-miterlimit="10" stroke-linecap="round" stroke-linejoin="round"/>
<path d="M152.99 57C152.99 58.1 152.1 58.99 151 58.99C149.9 58.99 149.01 58.1 149.01 57" stroke="#1DA042" stroke-width="1.2" stroke-miterlimit="10" stroke-linecap="round" stroke-linejoin="round"/>
<path d="M136.66 118.27C136.88 117.54 137 116.78 137 115.98C137 111.56 133.42 107.98 129 107.98C124.58 107.98 121 111.56 121 115.98C121 116.78 121.12 117.54 121.34 118.27C117.53 120.77 115 125.08 115 129.98H143C143 125.08 140.48 120.77 136.66 118.27Z" fill="white" stroke="white" stroke-width="1.2" stroke-miterlimit="10" stroke-linecap="round" stroke-linejoin="round"/>
<path d="M115 129.98C115 125.08 117.53 120.77 121.34 118.27C121.12 117.54 121 116.78 121 115.98C121 111.56 124.58 107.98 129 107.98C133.42 107.98 137 111.56 137 115.98C137 116.78 136.88 117.54 136.66 118.27C140.48 120.77 143 125.08 143 129.98" stroke="#1DA042" stroke-width="1.2" stroke-miterlimit="10" stroke-linecap="round" stroke-linejoin="round"/>
<path d="M129 117.98C130.105 117.98 131 117.085 131 115.98C131 114.875 130.105 113.98 129 113.98C127.895 113.98 127 114.875 127 115.98C127 117.085 127.895 117.98 129 117.98Z" stroke="#1DA042" stroke-width="1.2" stroke-miterlimit="10" stroke-linecap="round" stroke-linejoin="round"/>
<path d="M134.7 110.28L137.49 107.49" stroke="#1DA042" stroke-width="1.2" stroke-miterlimit="10" stroke-linecap="round" stroke-linejoin="round"/>
<path d="M137.06 115.98H141" stroke="#1DA042" stroke-width="1.2" stroke-miterlimit="10" stroke-linecap="round" stroke-linejoin="round"/>
<path d="M165.34 118.27C165.12 117.54 165 116.78 165 115.98C165 111.56 168.58 107.98 173 107.98C177.42 107.98 181 111.56 181 115.98C181 116.78 180.88 117.54 180.66 118.27C184.47 120.77 187 125.08 187 129.98H159C159 125.08 161.52 120.77 165.34 118.27Z" fill="white" stroke="white" stroke-width="1.2" stroke-miterlimit="10" stroke-linecap="round" stroke-linejoin="round"/>
<path d="M187 129.98C187 125.08 184.47 120.77 180.66 118.27C180.88 117.54 181 116.78 181 115.98C181 111.56 177.42 107.98 173 107.98C168.58 107.98 165 111.56 165 115.98C165 116.78 165.12 117.54 165.34 118.27C161.52 120.77 159 125.08 159 129.98" stroke="#1DA042" stroke-width="1.2" stroke-miterlimit="10" stroke-linecap="round" stroke-linejoin="round"/>
<path d="M173 117.98C174.105 117.98 175 117.085 175 115.98C175 114.875 174.105 113.98 173 113.98C171.895 113.98 171 114.875 171 115.98C171 117.085 171.895 117.98 173 117.98Z" stroke="#1DA042" stroke-width="1.2" stroke-miterlimit="10" stroke-linecap="round" stroke-linejoin="round"/>
<path d="M164.94 115.98H161" stroke="#1DA042" stroke-width="1.2" stroke-miterlimit="10" stroke-linecap="round" stroke-linejoin="round"/>
<path d="M78.44 12.6V5.2C78.44 3.43 77.01 2 75.24 2C73.47 2 72.04 3.43 72.04 5.2V14.6" fill="white"/>
<path d="M78.44 12.6V5.2C78.44 3.43 77.01 2 75.24 2C73.47 2 72.04 3.43 72.04 5.2V14.6" stroke="#1DA042" stroke-width="1.2" stroke-miterlimit="10" stroke-linecap="round" stroke-linejoin="round"/>
<path d="M96.44 14.6V5.2C96.44 3.43 95.01 2 93.24 2C91.47 2 90.04 3.43 90.04 5.2V12.6" fill="white"/>
<path d="M96.44 14.6V5.2C96.44 3.43 95.01 2 93.24 2C91.47 2 90.04 3.43 90.04 5.2V12.6" stroke="#1DA042" stroke-width="1.2" stroke-miterlimit="10" stroke-linecap="round" stroke-linejoin="round"/>
<path d="M99.2399 71.2H69.2399L63.7499 31.52C62.4199 21.9 69.8899 13.33 79.5999 13.33H88.8699C98.5799 13.33 106.05 21.9 104.72 31.52L99.2399 71.2Z" fill="white" stroke="#1DA042" stroke-width="1.2" stroke-miterlimit="10" stroke-linecap="round" stroke-linejoin="round"/>
<path d="M105.58 59.1099C107.87 58.7799 110.42 59.7599 112.19 61.5299C113.95 63.2899 114.67 65.7099 114.35 67.9999" fill="white"/>
<path d="M105.58 59.1099C107.87 58.7799 110.42 59.7599 112.19 61.5299C113.95 63.2899 114.67 65.7099 114.35 67.9999" stroke="#1DA042" stroke-width="1.2" stroke-miterlimit="10" stroke-linecap="round" stroke-linejoin="round"/>
<path d="M114.35 68C112.06 68.33 109.64 67.61 107.88 65.84C106.12 64.08 105.26 61.4 105.59 59.11" fill="white"/>
<path d="M114.35 68C112.06 68.33 109.64 67.61 107.88 65.84C106.12 64.08 105.26 61.4 105.59 59.11" stroke="#1DA042" stroke-width="1.2" stroke-miterlimit="10" stroke-linecap="round" stroke-linejoin="round"/>
<path d="M113.58 59.0299C114.97 57.1799 117.47 56.0699 119.96 56.0699C122.45 56.0699 124.67 57.2699 126.06 59.1199" fill="white"/>
<path d="M113.58 59.0299C114.97 57.1799 117.47 56.0699 119.96 56.0699C122.45 56.0699 124.67 57.2699 126.06 59.1199" stroke="#1DA042" stroke-width="1.2" stroke-miterlimit="10" stroke-linecap="round" stroke-linejoin="round"/>
<path d="M126.07 59.12C124.68 60.97 122.46 62.17 119.97 62.17C117.48 62.17 114.98 60.88 113.59 59.03" fill="white"/>
<path d="M126.07 59.12C124.68 60.97 122.46 62.17 119.97 62.17C117.48 62.17 114.98 60.88 113.59 59.03" stroke="#1DA042" stroke-width="1.2" stroke-miterlimit="10" stroke-linecap="round" stroke-linejoin="round"/>
<path d="M105.58 58.97C107.87 59.3 110.42 58.32 112.19 56.55C113.95 54.79 114.67 52.37 114.35 50.08" fill="white"/>
<path d="M105.58 58.97C107.87 59.3 110.42 58.32 112.19 56.55C113.95 54.79 114.67 52.37 114.35 50.08" stroke="#1DA042" stroke-width="1.2" stroke-miterlimit="10" stroke-linecap="round" stroke-linejoin="round"/>
<path d="M114.35 50.08C112.06 49.75 109.64 50.47 107.88 52.24C106.12 54 105.26 56.68 105.59 58.97" fill="white"/>
<path d="M114.35 50.08C112.06 49.75 109.64 50.47 107.88 52.24C106.12 54 105.26 56.68 105.59 58.97" stroke="#1DA042" stroke-width="1.2" stroke-miterlimit="10" stroke-linecap="round" stroke-linejoin="round"/>
<path d="M113 59L105.58 59.03" stroke="#1DA042" stroke-width="1.2" stroke-miterlimit="10" stroke-linecap="round" stroke-linejoin="round"/>
<path d="M95.2402 73.1999H73.2402C67.7202 73.1999 63.2402 68.72 63.2402 63.2V52.2C63.2402 50.54 64.5802 49.2 66.2402 49.2H102.24C103.9 49.2 105.24 50.54 105.24 52.2V63.2C105.24 68.72 100.76 73.1999 95.2402 73.1999Z" fill="white" stroke="#1DA042" stroke-width="1.2" stroke-miterlimit="10" stroke-linecap="round" stroke-linejoin="round"/>
<path d="M78.44 33.2C78.44 34.97 77.01 36.4 75.24 36.4C73.47 36.4 72.04 34.97 72.04 33.2" stroke="#1DA042" stroke-width="1.2" stroke-miterlimit="10" stroke-linecap="round" stroke-linejoin="round"/>
<path d="M121.24 29.2C119.03 29.2 117.24 30.99 117.24 33.2V42C117.24 44.21 119.03 46 121.24 46C123.45 46 125.24 44.21 125.24 42V33.2C125.24 30.99 123.45 29.2 121.24 29.2Z" stroke="#1DA042" stroke-width="1.2" stroke-miterlimit="10" stroke-linecap="round" stroke-linejoin="round"/>
<path d="M75.24 64.4C77.0073 64.4 78.44 62.9673 78.44 61.2C78.44 59.4327 77.0073 58 75.24 58C73.4727 58 72.04 59.4327 72.04 61.2C72.04 62.9673 73.4727 64.4 75.24 64.4Z" fill="white" stroke="#1DA042" stroke-width="1.2" stroke-miterlimit="10" stroke-linecap="round" stroke-linejoin="round"/>
<path d="M96.44 33.2C96.44 34.97 95.01 36.4 93.24 36.4C91.47 36.4 90.04 34.97 90.04 33.2" stroke="#1DA042" stroke-width="1.2" stroke-miterlimit="10" stroke-linecap="round" stroke-linejoin="round"/>
<path d="M93.24 64.4C95.0073 64.4 96.44 62.9673 96.44 61.2C96.44 59.4327 95.0073 58 93.24 58C91.4727 58 90.04 59.4327 90.04 61.2C90.04 62.9673 91.4727 64.4 93.24 64.4Z" fill="white" stroke="#1DA042" stroke-width="1.2" stroke-miterlimit="10" stroke-linecap="round" stroke-linejoin="round"/>
<path d="M137.48 23.2C133.11 19.46 127.44 17.2 121.24 17.2C115.04 17.2 109.37 19.46 105 23.2" stroke="#1DA042" stroke-width="1.2" stroke-miterlimit="10" stroke-linecap="round" stroke-linejoin="round"/>
<path d="M63.48 23.2C59.11 19.46 53.44 17.2 47.24 17.2C41.04 17.2 35.37 19.46 31 23.2" stroke="#1DA042" stroke-width="1.2" stroke-miterlimit="10" stroke-linecap="round" stroke-linejoin="round"/>
<path d="M105 23.2C109.37 26.94 115.04 29.2 121.24 29.2C127.44 29.2 133.11 26.94 137.48 23.2" stroke="#1DA042" stroke-width="1.2" stroke-miterlimit="10" stroke-linecap="round" stroke-linejoin="round"/>
<path d="M31 23.2C35.37 26.94 41.04 29.2 47.24 29.2C53.44 29.2 59.11 26.94 63.48 23.2" stroke="#1DA042" stroke-width="1.2" stroke-miterlimit="10" stroke-linecap="round" stroke-linejoin="round"/>
<path d="M21.9102 102C27.433 102 31.9102 87.6731 31.9102 70C31.9102 52.3269 27.433 38 21.9102 38C16.3873 38 11.9102 52.3269 11.9102 70C11.9102 87.6731 16.3873 102 21.9102 102Z" fill="white" stroke="#1DA042" stroke-width="1.2" stroke-miterlimit="10" stroke-linecap="round" stroke-linejoin="round"/>
<path d="M22.0703 122C21.4203 117.41 23.3803 112.31 26.9103 108.78C30.4403 105.25 35.2703 103.81 39.8503 104.47" fill="white"/>
<path d="M22.0703 122C21.4203 117.41 23.3803 112.31 26.9103 108.78C30.4403 105.25 35.2703 103.81 39.8503 104.47" stroke="#1DA042" stroke-width="1.2" stroke-miterlimit="10" stroke-linecap="round" stroke-linejoin="round"/>
<path d="M39.8501 104.47C40.5001 109.06 39.0601 113.89 35.5401 117.41C32.0101 120.94 26.6601 122.65 22.0801 122" fill="white"/>
<path d="M39.8501 104.47C40.5001 109.06 39.0601 113.89 35.5401 117.41C32.0101 120.94 26.6601 122.65 22.0801 122" stroke="#1DA042" stroke-width="1.2" stroke-miterlimit="10" stroke-linecap="round" stroke-linejoin="round"/>
<path d="M21.7903 122C22.4403 117.41 20.4803 112.31 16.9503 108.78C13.4203 105.25 8.59025 103.81 4.01025 104.47" fill="white"/>
<path d="M21.7903 122C22.4403 117.41 20.4803 112.31 16.9503 108.78C13.4203 105.25 8.59025 103.81 4.01025 104.47" stroke="#1DA042" stroke-width="1.2" stroke-miterlimit="10" stroke-linecap="round" stroke-linejoin="round"/>
<path d="M4.01005 104.47C3.36005 109.06 4.80005 113.89 8.32005 117.41C11.85 120.94 17.2001 122.65 21.7801 122" fill="white"/>
<path d="M4.01005 104.47C3.36005 109.06 4.80005 113.89 8.32005 117.41C11.8501 120.94 17.2001 122.65 21.7801 122" stroke="#1DA042" stroke-width="1.2" stroke-miterlimit="10" stroke-linecap="round" stroke-linejoin="round"/>
<path d="M15.9102 46H27.9102" stroke="#1DA042" stroke-width="1.2" stroke-miterlimit="10" stroke-linecap="round" stroke-linejoin="round"/>
<path d="M13.9102 54H29.9102" stroke="#1DA042" stroke-width="1.2" stroke-miterlimit="10" stroke-linecap="round" stroke-linejoin="round"/>
<path d="M11.9102 62H31.9102" stroke="#1DA042" stroke-width="1.2" stroke-miterlimit="10" stroke-linecap="round" stroke-linejoin="round"/>
<path d="M11.9102 70H31.9102" stroke="#1DA042" stroke-width="1.2" stroke-miterlimit="10" stroke-linecap="round" stroke-linejoin="round"/>
<path d="M21.9102 38V130" stroke="#1DA042" stroke-width="1.2" stroke-miterlimit="10" stroke-linecap="round" stroke-linejoin="round"/>
<path d="M21.9102 102V76C21.9102 68.27 28.1802 62 35.9102 62V88C35.9102 95.73 29.6402 102 21.9102 102Z" fill="white" stroke="#1DA042" stroke-width="1.2" stroke-miterlimit="10" stroke-linecap="round" stroke-linejoin="round"/>
<path d="M21.9102 102V76C21.9102 68.27 15.6402 62 7.91016 62V88C7.91016 95.73 14.1802 102 21.9102 102Z" fill="white" stroke="#1DA042" stroke-width="1.2" stroke-miterlimit="10" stroke-linecap="round" stroke-linejoin="round"/>
<path d="M21.9102 38L27.9102 32" stroke="#1DA042" stroke-width="1.2" stroke-miterlimit="10" stroke-linecap="round" stroke-linejoin="round"/>
<path d="M21.9102 38V28" stroke="#1DA042" stroke-width="1.2" stroke-miterlimit="10" stroke-linecap="round" stroke-linejoin="round"/>
<path d="M15.9102 32L21.9102 38" stroke="#1DA042" stroke-width="1.2" stroke-miterlimit="10" stroke-linecap="round" stroke-linejoin="round"/>
<path d="M198 20.54V6.01001" stroke="#1DA042" stroke-width="1.2" stroke-miterlimit="10" stroke-linecap="round" stroke-linejoin="round"/>
<path d="M189.89 23.89L179.62 13.62" stroke="#1DA042" stroke-width="1.2" stroke-miterlimit="10" stroke-linecap="round" stroke-linejoin="round"/>
<path d="M186.54 32H172.01" stroke="#1DA042" stroke-width="1.2" stroke-miterlimit="10" stroke-linecap="round" stroke-linejoin="round"/>
<path d="M189.89 40.11L179.62 50.38" stroke="#1DA042" stroke-width="1.2" stroke-miterlimit="10" stroke-linecap="round" stroke-linejoin="round"/>
<path d="M198 57.99V43.46" stroke="#1DA042" stroke-width="1.2" stroke-miterlimit="10" stroke-linecap="round" stroke-linejoin="round"/>
<path d="M206.11 40.11L216.38 50.38" stroke="#1DA042" stroke-width="1.2" stroke-miterlimit="10" stroke-linecap="round" stroke-linejoin="round"/>
<path d="M209.46 32H223.99" stroke="#1DA042" stroke-width="1.2" stroke-miterlimit="10" stroke-linecap="round" stroke-linejoin="round"/>
<path d="M206.11 23.89L216.38 13.62" stroke="#1DA042" stroke-width="1.2" stroke-miterlimit="10" stroke-linecap="round" stroke-linejoin="round"/>
<path d="M190.89 14.82L188.06 7.98999" stroke="#1DA042" stroke-width="1.2" stroke-miterlimit="10" stroke-linecap="round" stroke-linejoin="round"/>
<path d="M180.82 24.8901L173.99 22.0601" stroke="#1DA042" stroke-width="1.2" stroke-miterlimit="10" stroke-linecap="round" stroke-linejoin="round"/>
<path d="M180.82 39.11L173.99 41.94" stroke="#1DA042" stroke-width="1.2" stroke-miterlimit="10" stroke-linecap="round" stroke-linejoin="round"/>
<path d="M190.89 49.1801L188.06 56.0101" stroke="#1DA042" stroke-width="1.2" stroke-miterlimit="10" stroke-linecap="round" stroke-linejoin="round"/>
<path d="M207.94 56.0101L205.11 49.1801" stroke="#1DA042" stroke-width="1.2" stroke-miterlimit="10" stroke-linecap="round" stroke-linejoin="round"/>
<path d="M215.18 39.11L222.01 41.94" stroke="#1DA042" stroke-width="1.2" stroke-miterlimit="10" stroke-linecap="round" stroke-linejoin="round"/>
<path d="M215.18 24.8901L222.01 22.0601" stroke="#1DA042" stroke-width="1.2" stroke-miterlimit="10" stroke-linecap="round" stroke-linejoin="round"/>
<path d="M205.11 14.82L207.94 7.98999" stroke="#1DA042" stroke-width="1.2" stroke-miterlimit="10" stroke-linecap="round" stroke-linejoin="round"/>
<path d="M198 44.13C204.699 44.13 210.13 38.6992 210.13 32C210.13 25.3008 204.699 19.87 198 19.87C191.3 19.87 185.87 25.3008 185.87 32C185.87 38.6992 191.3 44.13 198 44.13Z" fill="white" stroke="#1DA042" stroke-width="1.2" stroke-miterlimit="10" stroke-linecap="round" stroke-linejoin="round"/>
<path d="M143 83.98C143 86.19 144.79 87.98 147 87.98C149.21 87.98 151 86.19 151 83.98" stroke="#1DA042" stroke-width="1.5" stroke-miterlimit="10" stroke-linecap="round" stroke-linejoin="round"/>
<path d="M151 83.98C151 86.19 152.79 87.98 155 87.98C157.21 87.98 159 86.19 159 83.98" stroke="#1DA042" stroke-width="1.5" stroke-miterlimit="10" stroke-linecap="round" stroke-linejoin="round"/>
<path d="M222.46 40.36C222.46 35.49 218.51 31.54 213.64 31.54C208.77 31.54 204.82 35.49 204.82 40.36C199.95 40.36 196 44.31 196 49.18C196 54.05 199.95 58 204.82 58H222.46C227.33 58 231.28 54.05 231.28 49.18C231.28 44.31 227.33 40.36 222.46 40.36Z" fill="white" stroke="#1DA042" stroke-width="1.2" stroke-miterlimit="10" stroke-linecap="round" stroke-linejoin="round"/>
<path d="M58 97.7V78H59.05C63.68 78 67.81 80.1 70.56 83.4" stroke="#1DA042" stroke-width="1.5" stroke-miterlimit="10" stroke-linecap="round" stroke-linejoin="round"/>
<path d="M146.3 49.5199L140.42 41.4299" stroke="#1DA042" stroke-width="1.5" stroke-miterlimit="10" stroke-linecap="round" stroke-linejoin="round"/>
<path d="M155.7 49.5199L161.58 41.4299" stroke="#1DA042" stroke-width="1.5" stroke-miterlimit="10" stroke-linecap="round" stroke-linejoin="round"/>
<path d="M162.09 17.6699C159.96 15.2399 156.25 15.1499 154 17.3999C151.75 15.1499 148.05 15.2399 145.91 17.6699C143.96 19.8899 144.21 23.2799 146.3 25.3699L152.7 31.7699C153.42 32.4899 154.59 32.4899 155.31 31.7699L161.71 25.3699C163.79 23.2899 164.04 19.8899 162.09 17.6699Z" stroke="#1DA042" stroke-width="1.2" stroke-miterlimit="10" stroke-linecap="round" stroke-linejoin="round"/>
<path d="M175 73V65.4" stroke="#1DA042" stroke-width="1.2" stroke-miterlimit="10" stroke-linecap="round" stroke-linejoin="round"/>
<path d="M178.8 69.2001H171.2" stroke="#1DA042" stroke-width="1.2" stroke-miterlimit="10" stroke-linecap="round" stroke-linejoin="round"/>
<path d="M125.24 87.6V80" stroke="#1DA042" stroke-width="1.2" stroke-miterlimit="10" stroke-linecap="round" stroke-linejoin="round"/>
<path d="M129.04 83.8H121.44" stroke="#1DA042" stroke-width="1.2" stroke-miterlimit="10" stroke-linecap="round" stroke-linejoin="round"/>
</svg>
